REM DIRINDEX 1\2,1\3\7,1\3\8,1\4\9,1\4\10,1\4\11,1\5\12,1\5\13,1\5\14,1\6\15,1\6\16,1\6\17
REM DIRNAME "folder01","folder02","folder03","folder04","folder05","folder06","folder07","folder08","folder09","folder10","folder11","folder12","folder13","folder14","folder15","folder16","folder17"
TITLE ""
FILE "2Q_t_0918-0934.mp3" MP3
  TRACK 01 AUDIO
    TITLE "0:"
    INDEX 01 00:00:00
  TRACK 02 AUDIO
    TITLE "7:cjc174_3617"
    INDEX 01 00:00:10
  TRACK 03 AUDIO
    TITLE "0:"
    INDEX 01 00:01:23
  TRACK 04 AUDIO
    TITLE "8:cjc174_3618"
    INDEX 01 00:01:70
  TRACK 05 AUDIO
    TITLE "0:"
    INDEX 01 00:03:28
  TRACK 06 AUDIO
    TITLE "7:cjc174_3619"
    INDEX 01 00:03:71
  TRACK 07 AUDIO
    TITLE "0:"
    INDEX 01 00:04:75
  TRACK 08 AUDIO
    TITLE "8:cjc174_3620"
    INDEX 01 00:05:49
  TRACK 09 AUDIO
    TITLE "0:"
    INDEX 01 00:09:13
  TRACK 10 AUDIO
    TITLE "7:cjc174_3621"
    INDEX 01 00:09:58
  TRACK 11 AUDIO
    TITLE "0:"
    INDEX 01 00:10:60
  TRACK 12 AUDIO
    TITLE "8:cjc174_3622"
    INDEX 01 00:11:41
  TRACK 13 AUDIO
    TITLE "0:"
    INDEX 01 00:13:11
  TRACK 14 AUDIO
    TITLE "7:cjc174_3623"
    INDEX 01 00:13:56
  TRACK 15 AUDIO
    TITLE "0:"
    INDEX 01 00:14:71
  TRACK 16 AUDIO
    TITLE "8:cjc174_3624"
    INDEX 01 00:15:43
  TRACK 17 AUDIO
    TITLE "0:"
    INDEX 01 00:18:43
  TRACK 18 AUDIO
    TITLE "7:cjc174_3625"
    INDEX 01 00:19:12
  TRACK 19 AUDIO
    TITLE "0:"
    INDEX 01 00:20:17
  TRACK 20 AUDIO
    TITLE "8:cjc174_3626"
    INDEX 01 00:20:66
  TRACK 21 AUDIO
    TITLE "0:"
    INDEX 01 00:22:14
  TRACK 22 AUDIO
    TITLE "7:cjc174_3627"
    INDEX 01 00:22:57
  TRACK 23 AUDIO
    TITLE "0:"
    INDEX 01 00:23:58
  TRACK 24 AUDIO
    TITLE "8:cjc174_3628"
    INDEX 01 00:24:44
  TRACK 25 AUDIO
    TITLE "0:"
    INDEX 01 00:27:42
  TRACK 26 AUDIO
    TITLE "7:cjc174_3629"
    INDEX 01 00:28:14
  TRACK 27 AUDIO
    TITLE "0:"
    INDEX 01 00:29:35
  TRACK 28 AUDIO
    TITLE "8:cjc174_3630"
    INDEX 01 00:30:06
  TRACK 29 AUDIO
    TITLE "0:"
    INDEX 01 00:36:53
  TRACK 30 AUDIO
    TITLE "7:cjc174_3631"
    INDEX 01 00:37:21
  TRACK 31 AUDIO
    TITLE "0:"
    INDEX 01 00:38:40
  TRACK 32 AUDIO
    TITLE "8:cjc174_3632"
    INDEX 01 00:39:14
  TRACK 33 AUDIO
    TITLE "0:"
    INDEX 01 00:43:73
  TRACK 34 AUDIO
    TITLE "7:cjc174_3633"
    INDEX 01 00:44:41
  TRACK 35 AUDIO
    TITLE "0:"
    INDEX 01 00:45:48
  TRACK 36 AUDIO
    TITLE "8:cjc174_3634"
    INDEX 01 00:46:28
  TRACK 37 AUDIO
    TITLE "0:"
    INDEX 01 00:47:71
  TRACK 38 AUDIO
    TITLE "7:cjc174_3635"
    INDEX 01 00:48:41
  TRACK 39 AUDIO
    TITLE "0:"
    INDEX 01 00:49:44
  TRACK 40 AUDIO
    TITLE "8:cjc174_3636"
    INDEX 01 00:50:14
  TRACK 41 AUDIO
    TITLE "0:"
    INDEX 01 00:54:06
  TRACK 42 AUDIO
    TITLE "2:cjc174_3637"
    INDEX 01 00:54:49
  TRACK 43 AUDIO
    TITLE "0:"
    INDEX 01 00:55:56
  TRACK 44 AUDIO
    TITLE "7:cjc174_3638"
    INDEX 01 00:56:26
  TRACK 45 AUDIO
    TITLE "0:"
    INDEX 01 00:57:55
  TRACK 46 AUDIO
    TITLE "8:cjc174_3639"
    INDEX 01 00:58:29
  TRACK 47 AUDIO
    TITLE "0:"
    INDEX 01 01:02:39
  TRACK 48 AUDIO
    TITLE "7:cjc174_3640"
    INDEX 01 01:03:07
  TRACK 49 AUDIO
    TITLE "0:"
    INDEX 01 01:04:36
  TRACK 50 AUDIO
    TITLE "8:cjc174_3641"
    INDEX 01 01:05:12
  TRACK 51 AUDIO
    TITLE "0:"
    INDEX 01 01:06:25
  TRACK 52 AUDIO
    TITLE "7:cjc174_3642"
    INDEX 01 01:06:70
  TRACK 53 AUDIO
    TITLE "0:"
    INDEX 01 01:08:22
  TRACK 54 AUDIO
    TITLE "8:cjc174_3643"
    INDEX 01 01:08:71
  TRACK 55 AUDIO
    TITLE "0:"
    INDEX 01 01:13:09
  TRACK 56 AUDIO
    TITLE "7:cjc174_3644"
    INDEX 01 01:13:52
  TRACK 57 AUDIO
    TITLE "0:"
    INDEX 01 01:15:16
  TRACK 58 AUDIO
    TITLE "8:cjc174_3645"
    INDEX 01 01:15:65
  TRACK 59 AUDIO
    TITLE "0:"
    INDEX 01 01:17:11
  TRACK 60 AUDIO
    TITLE "7:cjc174_3646"
    INDEX 01 01:17:56
  TRACK 61 AUDIO
    TITLE "0:"
    INDEX 01 01:18:71
  TRACK 62 AUDIO
    TITLE "8:cjc174_3647"
    INDEX 01 01:19:47
  TRACK 63 AUDIO
    TITLE "0:"
    INDEX 01 01:20:43
  TRACK 64 AUDIO
    TITLE "7:cjc174_3648"
    INDEX 01 01:21:11
  TRACK 65 AUDIO
    TITLE "0:"
    INDEX 01 01:22:26
  TRACK 66 AUDIO
    TITLE "8:cjc174_3649"
    INDEX 01 01:23:04
  TRACK 67 AUDIO
    TITLE "0:"
    INDEX 01 01:26:22
  TRACK 68 AUDIO
    TITLE "7:cjc174_3650"
    INDEX 01 01:26:65
  TRACK 69 AUDIO
    TITLE "0:"
    INDEX 01 01:27:64
  TRACK 70 AUDIO
    TITLE "8:cjc174_3651"
    INDEX 01 01:28:46
  TRACK 71 AUDIO
    TITLE "0:"
    INDEX 01 01:30:51
